<svg id="Layer_1" data-name="Layer 1" xmlns="http://www.w3.org/2000/svg" xmlns:xlink="http://www.w3.org/1999/xlink" viewBox="0 0 90.51 42.75"><defs><style>.cls-1{fill:#212121;}.cls-2{fill:url(#linear-gradient);}</style><linearGradient id="linear-gradient" x1="5.91" y1="13.47" x2="37.05" y2="39.59" gradientUnits="userSpaceOnUse"><stop offset="0" stop-color="#03a9f4"/><stop offset="1" stop-color="#005293"/></linearGradient></defs><title>finfo-logo</title><g id="Full_Color" data-name="Full Color"><path class="cls-1" d="M28.1,20.06H39.73v3.27H32.83V26h5.9v3.07h-5.9v6.22H28.1Z" transform="translate(-7.11 -8.47)"/><path class="cls-1" d="M42.45,20.06h4.71V35.28H42.45Z" transform="translate(-7.11 -8.47)"/><path class="cls-1" d="M50.57,20.06H55l5.73,8.42V20.06h4.43V35.28H60.7L55,26.92v8.36H50.57Z" transform="translate(-7.11 -8.47)"/><path class="cls-1" d="M68.28,20.06H79.91v3.27H73V26h5.9v3.07H73v6.22H68.28Z" transform="translate(-7.11 -8.47)"/><path class="cls-1" d="M81.85,27.68a7.85,7.85,0,0,1,2.08-5.8,7.82,7.82,0,0,1,5.78-2.08,8,8,0,0,1,5.86,2,7.69,7.69,0,0,1,2.06,5.72,9.37,9.37,0,0,1-.9,4.38,6.4,6.4,0,0,1-2.6,2.66,8.57,8.57,0,0,1-4.23,1,9.73,9.73,0,0,1-4.26-.82,6.42,6.42,0,0,1-2.74-2.6A8.62,8.62,0,0,1,81.85,27.68Zm4.7,0A5.1,5.1,0,0,0,87.41,31a3.24,3.24,0,0,0,4.68,0,5.63,5.63,0,0,0,.83-3.54A4.71,4.71,0,0,0,92,24.35a3,3,0,0,0-2.35-1,2.86,2.86,0,0,0-2.28,1A5.12,5.12,0,0,0,86.55,27.7Z" transform="translate(-7.11 -8.47)"/><path class="cls-2" d="M36.86,39.82v-3H10.16V12h-3V39.82H36.86ZM17.64,27.69H12.7v7.59h4.94Zm7.5-3.8H20.2V35.28h4.94ZM12.43,20v3.8S27.5,24,32.18,13.13H33.7L30.15,8.47,25.9,13.13h1.88S24.21,20.22,12.43,20Z" transform="translate(-7.11 -8.47)"/><path d="M7.51,49.75h-.4l0-1.49,0-3.42h.41l0,3.4Z" transform="translate(-7.11 -8.47)"/><path d="M11.12,46.75a.69.69,0,0,0-.53-.2,1.54,1.54,0,0,0-1.13.64v1l0,1.52h-.4l0-1.5,0-2,.38,0v.56h0a1.91,1.91,0,0,1,1.08-.59,1.13,1.13,0,0,1,.82.27,1,1,0,0,1,.28.77v1l0,1.52h-.4l0-2.42A.79.79,0,0,0,11.12,46.75Z" transform="translate(-7.11 -8.47)"/><path d="M13.87,49.31h0l1-2.65.12-.41h.38l-1.34,3.5h-.43l-1.13-3.48.38,0,.1.42Z" transform="translate(-7.11 -8.47)"/><path d="M18.38,46.54a1.34,1.34,0,0,1,.31.93l0,.29-.09.08-2.24,0V48a1.72,1.72,0,0,0,.3,1.07,1,1,0,0,0,.85.39,1.55,1.55,0,0,0,1-.35l.06,0,0,.35a1.87,1.87,0,0,1-1,.31,1.35,1.35,0,0,1-1.1-.47A1.94,1.94,0,0,1,16,48a2,2,0,0,1,.42-1.34,1.4,1.4,0,0,1,1.13-.49A1.11,1.11,0,0,1,18.38,46.54Zm-.28.2a.81.81,0,0,0-.62-.24,1,1,0,0,0-.73.29,1.42,1.42,0,0,0-.38.8l1.94-.05,0-.1A1,1,0,0,0,18.11,46.74Z" transform="translate(-7.11 -8.47)"/><path d="M21.52,46.37l-.06.33-.07,0a1.41,1.41,0,0,0-.7-.21.75.75,0,0,0-.52.18.55.55,0,0,0-.2.43.46.46,0,0,0,.18.39,2.9,2.9,0,0,0,.56.31,5.12,5.12,0,0,1,.48.25,1.05,1.05,0,0,1,.3.28.72.72,0,0,1,.13.43.94.94,0,0,1-.14.5,1,1,0,0,1-.41.37,1.34,1.34,0,0,1-.62.14,1.91,1.91,0,0,1-1-.25l.05-.35.05,0a1.35,1.35,0,0,0,.88.33A.82.82,0,0,0,21,49.3a.59.59,0,0,0,.22-.45.46.46,0,0,0-.18-.38,2.89,2.89,0,0,0-.55-.32,4.48,4.48,0,0,1-.48-.25,1.05,1.05,0,0,1-.31-.3.77.77,0,0,1-.13-.45.85.85,0,0,1,.31-.67,1.2,1.2,0,0,1,.82-.27A2,2,0,0,1,21.52,46.37Z" transform="translate(-7.11 -8.47)"/><path d="M24.4,49.26l0,0,0,.28a1.62,1.62,0,0,1-.69.21.83.83,0,0,1-.78-1l0-.69v-1.6h-.48l0,0,0-.25h.48v-.7l.34-.14,0,0v.8h1.12l0,0,0,.25H23.32l0,2.25q0,.65.53.65A1.17,1.17,0,0,0,24.4,49.26Z" transform="translate(-7.11 -8.47)"/><path d="M27.61,46.66A2,2,0,0,1,28,48a2,2,0,0,1-.41,1.35,1.4,1.4,0,0,1-1.13.48,1.32,1.32,0,0,1-1.08-.47A2,2,0,0,1,25,48a2.07,2.07,0,0,1,.4-1.36,1.38,1.38,0,0,1,1.13-.49A1.33,1.33,0,0,1,27.61,46.66Zm-1.93.22a1.73,1.73,0,0,0-.3,1.08,1.91,1.91,0,0,0,.29,1.13,1,1,0,0,0,.81.4,1,1,0,0,0,.85-.38,1.71,1.71,0,0,0,.3-1.08,1.91,1.91,0,0,0-.29-1.14,1,1,0,0,0-.82-.4A1,1,0,0,0,25.68,46.88Z" transform="translate(-7.11 -8.47)"/><path d="M30.9,46.25v.38l-.05,0-.25,0q-.51,0-1,.93v.66l0,1.52h-.4l0-1.5,0-2,.38,0V47h0q.44-.78,1-.78Z" transform="translate(-7.11 -8.47)"/><path d="M36.05,49.75H33.46l0-1.49,0-3.42H36l0,0,0,.32-1.15,0h-1l0,1.85h1.78l0,0,0,.32H33.85v.85l0,1.17h1l1.21,0,0,0Z" transform="translate(-7.11 -8.47)"/><path d="M39.14,46.75a.69.69,0,0,0-.53-.2,1.54,1.54,0,0,0-1.13.64v1l0,1.52h-.4l0-1.5,0-2,.38,0v.56h0a1.91,1.91,0,0,1,1.08-.59,1.13,1.13,0,0,1,.82.27,1,1,0,0,1,.28.77v1l0,1.52h-.4l0-2.42A.79.79,0,0,0,39.14,46.75Z" transform="translate(-7.11 -8.47)"/><path d="M43.37,46.62v0a1.18,1.18,0,0,1,.22.74,1.15,1.15,0,0,1-.35.88,1.34,1.34,0,0,1-1,.33,1.69,1.69,0,0,1-.54-.08,1.26,1.26,0,0,0-.24.21.26.26,0,0,0-.06.16q0,.17.22.24a4.41,4.41,0,0,0,.69.14,7.48,7.48,0,0,1,.75.15,1.31,1.31,0,0,1,.5.25.56.56,0,0,1,.21.46.84.84,0,0,1-.22.55,1.48,1.48,0,0,1-.58.4,2.11,2.11,0,0,1-.8.15,1.44,1.44,0,0,1-.92-.27.83.83,0,0,1-.33-.68,1.51,1.51,0,0,1,.73-.77v0q-.62-.16-.62-.58a1.22,1.22,0,0,1,.46-.46v0a1.07,1.07,0,0,1-.49-1,1.15,1.15,0,0,1,.35-.89,1.35,1.35,0,0,1,1-.32,1.44,1.44,0,0,1,.71.16q.65-.12,1.05-.24l0,0v.29Zm-.08,3.23a1,1,0,0,0-.38-.17l-.61-.11-.25,0q-.73.41-.73.79a.51.51,0,0,0,.25.43,1.18,1.18,0,0,0,.68.17,1.69,1.69,0,0,0,.6-.1,1.11,1.11,0,0,0,.43-.28.55.55,0,0,0,.16-.38A.37.37,0,0,0,43.29,49.85ZM43,48.06a.9.9,0,0,0,.25-.67.88.88,0,0,0-.23-.65.91.91,0,0,0-.67-.23.94.94,0,0,0-.68.24,1,1,0,0,0,0,1.32.9.9,0,0,0,.67.24A.92.92,0,0,0,43,48.06Z" transform="translate(-7.11 -8.47)"/><path d="M46.74,46.43a.85.85,0,0,1,.26.66q0-.11,0,1,0,.88,0,1a.5.5,0,0,0,.06.28.22.22,0,0,0,.2.08.66.66,0,0,0,.29-.08l.05,0,0,.25a.78.78,0,0,1-.39.12q-.46,0-.48-.58h0a1.67,1.67,0,0,1-.91.59,1,1,0,0,1-.72-.24.87.87,0,0,1-.26-.67.75.75,0,0,1,.68-.78l1.28-.3,0-.62a.67.67,0,0,0-.18-.5.69.69,0,0,0-.5-.17,1.73,1.73,0,0,0-1.08.5l0,0-.06-.28a2,2,0,0,1,1.24-.5A1,1,0,0,1,46.74,46.43ZM45,48.83a.63.63,0,0,0,.16.46.59.59,0,0,0,.45.17,1.28,1.28,0,0,0,.95-.62l0-.75-1.19.28A.44.44,0,0,0,45,48.83Z" transform="translate(-7.11 -8.47)"/><path d="M50.81,46.62v0a1.18,1.18,0,0,1,.22.74,1.15,1.15,0,0,1-.35.88,1.34,1.34,0,0,1-1,.33,1.69,1.69,0,0,1-.54-.08,1.26,1.26,0,0,0-.24.21.26.26,0,0,0-.06.16q0,.17.22.24a4.41,4.41,0,0,0,.69.14,7.48,7.48,0,0,1,.75.15,1.31,1.31,0,0,1,.5.25.56.56,0,0,1,.21.46.84.84,0,0,1-.22.55,1.48,1.48,0,0,1-.58.4,2.11,2.11,0,0,1-.8.15,1.44,1.44,0,0,1-.92-.27.83.83,0,0,1-.33-.68,1.51,1.51,0,0,1,.73-.77v0q-.62-.16-.62-.58a1.22,1.22,0,0,1,.46-.46v0a1.07,1.07,0,0,1-.49-1,1.15,1.15,0,0,1,.35-.89,1.35,1.35,0,0,1,1-.32,1.44,1.44,0,0,1,.71.16q.65-.12,1.05-.24l0,0v.29Zm-.08,3.23a1,1,0,0,0-.38-.17l-.61-.11-.25,0q-.73.41-.73.79a.51.51,0,0,0,.25.43,1.18,1.18,0,0,0,.68.17,1.69,1.69,0,0,0,.6-.1,1.11,1.11,0,0,0,.43-.28.55.55,0,0,0,.16-.38A.37.37,0,0,0,50.74,49.85Zm-.32-1.8a.9.9,0,0,0,.25-.67.88.88,0,0,0-.23-.65.91.91,0,0,0-.67-.23.94.94,0,0,0-.68.24,1,1,0,0,0,0,1.32.9.9,0,0,0,.67.24A.92.92,0,0,0,50.42,48.06Z" transform="translate(-7.11 -8.47)"/><path d="M54.66,46.54a1.34,1.34,0,0,1,.31.93l0,.29-.09.08-2.24,0V48a1.72,1.72,0,0,0,.3,1.07,1,1,0,0,0,.85.39,1.55,1.55,0,0,0,1-.35l.06,0,0,.35a1.87,1.87,0,0,1-1,.31,1.35,1.35,0,0,1-1.1-.47,1.94,1.94,0,0,1-.4-1.29,2,2,0,0,1,.42-1.34,1.4,1.4,0,0,1,1.13-.49A1.11,1.11,0,0,1,54.66,46.54Zm-.28.2a.81.81,0,0,0-.62-.24,1,1,0,0,0-.73.29,1.42,1.42,0,0,0-.38.8l1.94-.05,0-.1A1,1,0,0,0,54.38,46.74Z" transform="translate(-7.11 -8.47)"/><path d="M61,49.75h-.4l0-2.42a.79.79,0,0,0-.18-.57.69.69,0,0,0-.53-.21,1.57,1.57,0,0,0-1.12.61v2.59h-.4l0-2.42a.82.82,0,0,0-.18-.57.68.68,0,0,0-.53-.2,1.58,1.58,0,0,0-1.13.64v1l0,1.52h-.4l0-1.5,0-2,.38,0v.56h0a1.91,1.91,0,0,1,1.08-.59,1,1,0,0,1,1,.62h0a2,2,0,0,1,1.13-.62,1.12,1.12,0,0,1,.81.27,1,1,0,0,1,.28.77v2.5Z" transform="translate(-7.11 -8.47)"/><path d="M64.55,46.54a1.34,1.34,0,0,1,.31.93l0,.29-.09.08-2.24,0V48a1.72,1.72,0,0,0,.3,1.07,1,1,0,0,0,.85.39,1.55,1.55,0,0,0,1-.35l.06,0,0,.35a1.87,1.87,0,0,1-1,.31,1.35,1.35,0,0,1-1.1-.47,1.94,1.94,0,0,1-.4-1.29,2,2,0,0,1,.42-1.34,1.4,1.4,0,0,1,1.13-.49A1.11,1.11,0,0,1,64.55,46.54Zm-.28.2a.81.81,0,0,0-.62-.24,1,1,0,0,0-.73.29,1.42,1.42,0,0,0-.38.8l1.94-.05,0-.1A1,1,0,0,0,64.27,46.74Z" transform="translate(-7.11 -8.47)"/><path d="M68.09,46.75a.69.69,0,0,0-.53-.2,1.54,1.54,0,0,0-1.13.64v1l0,1.52H66l0-1.5,0-2,.38,0v.56h0a1.91,1.91,0,0,1,1.08-.59,1.13,1.13,0,0,1,.82.27,1,1,0,0,1,.28.77v1l0,1.52h-.4l0-2.42A.79.79,0,0,0,68.09,46.75Z" transform="translate(-7.11 -8.47)"/><path d="M71.68,49.26l0,0,0,.28a1.62,1.62,0,0,1-.69.21.83.83,0,0,1-.78-1l0-.69v-1.6h-.48l0,0,0-.25h.48v-.7l.34-.14,0,0v.8h1.12l0,0,0,.25H70.6l0,2.25q0,.65.53.65A1.17,1.17,0,0,0,71.68,49.26Z" transform="translate(-7.11 -8.47)"/><path d="M78.7,49.75l-.13-1.5-.3-2.72h0l-1.5,3.63h-.36l-1.45-3.63h0l-.3,2.7-.15,1.52h-.35l.53-4.92h.45l.28.75,1.21,3h0l1.28-3.1.26-.69h.45l.5,4.92Z" transform="translate(-7.11 -8.47)"/><path d="M82.16,46.43a.85.85,0,0,1,.26.66q0-.11,0,1,0,.88,0,1a.5.5,0,0,0,.06.28.22.22,0,0,0,.2.08.65.65,0,0,0,.29-.08l.05,0,0,.25a.78.78,0,0,1-.39.12q-.46,0-.48-.58h0a1.67,1.67,0,0,1-.91.59,1,1,0,0,1-.72-.24.87.87,0,0,1-.26-.67.75.75,0,0,1,.68-.78L82,47.8l0-.62a.67.67,0,0,0-.18-.5.69.69,0,0,0-.5-.17,1.73,1.73,0,0,0-1.08.5l0,0-.06-.28a2,2,0,0,1,1.24-.5A1,1,0,0,1,82.16,46.43Zm-1.72,2.4a.63.63,0,0,0,.16.46.59.59,0,0,0,.45.17,1.28,1.28,0,0,0,.95-.62l0-.75-1.19.28A.44.44,0,0,0,80.45,48.83Z" transform="translate(-7.11 -8.47)"/><path d="M85.6,49.26l0,0,0,.28a1.62,1.62,0,0,1-.69.21.83.83,0,0,1-.78-1l0-.69v-1.6h-.48l0,0,0-.25h.48v-.7l.34-.14,0,0v.8h1.12l0,0,0,.25H84.51l0,2.25q0,.65.53.65A1.17,1.17,0,0,0,85.6,49.26Z" transform="translate(-7.11 -8.47)"/><path d="M88.17,49.26l0,0,0,.28a1.62,1.62,0,0,1-.69.21.83.83,0,0,1-.78-1l0-.69v-1.6h-.48l0,0,0-.25h.48v-.7l.34-.14,0,0v.8H88.2l0,0,0,.25H87.08l0,2.25q0,.65.53.65A1.17,1.17,0,0,0,88.17,49.26Z" transform="translate(-7.11 -8.47)"/><path d="M91.18,46.54a1.34,1.34,0,0,1,.31.93l0,.29-.09.08-2.24,0V48a1.72,1.72,0,0,0,.3,1.07,1,1,0,0,0,.85.39,1.55,1.55,0,0,0,1-.35l.06,0,0,.35a1.87,1.87,0,0,1-1,.31,1.35,1.35,0,0,1-1.1-.47,1.94,1.94,0,0,1-.4-1.29,2,2,0,0,1,.42-1.34,1.4,1.4,0,0,1,1.13-.49A1.11,1.11,0,0,1,91.18,46.54Zm-.28.2a.81.81,0,0,0-.62-.24,1,1,0,0,0-.73.29,1.42,1.42,0,0,0-.38.8l1.94-.05,0-.1A1,1,0,0,0,90.9,46.74Z" transform="translate(-7.11 -8.47)"/><path d="M94.32,46.25v.38l-.05,0-.25,0q-.51,0-1,.93v.66l0,1.52h-.4l0-1.5,0-2,.38,0V47h0q.44-.78,1-.78Z" transform="translate(-7.11 -8.47)"/><path d="M96.9,46.37l-.06.33-.07,0a1.41,1.41,0,0,0-.7-.21.75.75,0,0,0-.52.18.55.55,0,0,0-.2.43.46.46,0,0,0,.18.39,2.91,2.91,0,0,0,.56.31,5.1,5.1,0,0,1,.48.25,1.05,1.05,0,0,1,.3.28.72.72,0,0,1,.13.43.93.93,0,0,1-.14.5,1,1,0,0,1-.41.37,1.35,1.35,0,0,1-.62.14,1.91,1.91,0,0,1-1-.25l.05-.35.05,0a1.35,1.35,0,0,0,.88.33.82.82,0,0,0,.57-.19.59.59,0,0,0,.22-.45.46.46,0,0,0-.18-.38,2.88,2.88,0,0,0-.55-.32,4.47,4.47,0,0,1-.48-.25,1.05,1.05,0,0,1-.31-.3.77.77,0,0,1-.13-.45.85.85,0,0,1,.31-.67,1.2,1.2,0,0,1,.82-.27A2,2,0,0,1,96.9,46.37Z" transform="translate(-7.11 -8.47)"/></g></svg>